<?xml version="1.0" encoding="utf-8"?>
<!-- Generator: Adobe Illustrator 24.0.1, SVG Export Plug-In . SVG Version: 6.00 Build 0)  -->
<svg version="1.1" id="Layer_1" xmlns="http://www.w3.org/2000/svg" xmlns:xlink="http://www.w3.org/1999/xlink" x="0px" y="0px"
	 viewBox="0 0 709.2 100" style="enable-background:new 0 0 709.2 100;" xml:space="preserve">
<style type="text/css">
	.st0{fill:#FFFFFF;}
	.st1{fill:#2687E9;}
</style>
<g>
	<g>
		<path class="st1" d="M131.5,23c-23.9,0-39.4,17.8-39.4,38.5C92.2,83,107,100,131.5,100c23.6,0,39.1-18.1,39.1-38.6
			C170.6,40,155.7,23,131.5,23z M131.4,81.9c-12.3,0-18-9.9-18-20.5c0-10.4,5.7-20.3,18.1-20.3c12.3,0,17.8,9.8,17.8,20.3
			C149.4,72,143.8,81.9,131.4,81.9z M82.5,75.5l-10.5-8c-5,7.6-12.9,12.7-23.7,12.7c-16.8,0-26.4-13.2-26.4-30.2
			c0-16.4,8.7-30.1,26.8-30.1c10.5,0,17.7,4.7,22.5,12.3l10.6-8.2c2.4-1.9,3-5.4,1.2-7.9C74.9,4.9,62.3,0,48.5,0
			C15.4,0,0,24.8,0,49.9C0,79.7,17.7,100,48.2,100c14.6,0,27.4-5.2,35.5-16.7C85.5,80.8,84.9,77.4,82.5,75.5z M226.1,23
			c-10.5,0-18.9,4.5-24.5,11.8c-0.2-2-0.5-4-0.9-6.2c-0.9-2.6-2.9-3.9-6.2-3.9h-12.4v73.7h21.2V63.3c0-14.9,7.1-22.2,17.7-22.2
			c8.4,0,13,5,13,15.2v42h21.2V57.1C255.3,34.4,244.7,23,226.1,23z M308.9,81.3c-1.2,0.4-2.5,0.6-3.8,0.6c-8.5,0-13.3-5-13.3-15.5
			v-24h19c3.2,0,5.7-2.6,5.7-5.7V24.7h-24.7V14.1c0-3.2-2.6-5.7-5.7-5.7h-15.5v57.2c0,21.3,9.4,34.4,28.1,34.4
			c11,0,18.7-4.8,22.2-7.5l-5.5-8.8C313.9,81.6,311.3,80.6,308.9,81.3z M363,23c-11.7,0-20.6,2.2-29.4,8.2c-2.9,2-3.4,6-1.2,8.7
			l5.9,7.3c7.8-6,14.3-7.3,21.9-7.3c9.9,0,16.4,5.3,16.4,16.8v0.9c-5.9-2.2-12.6-3.3-20-3.3c-21.4,0-30.2,11.5-30.2,23.3
			c0,11.5,7.6,22.5,26.8,22.5c12.3,0,20.5-5.3,25.4-12.1c0.2,2,0.3,4,0.8,6.2c0.6,2.9,2.9,4.2,6.2,4.2h11V57.7
			C396.6,33.5,381.8,23,363,23z M375.9,70.6c-1.2,7.9-7.6,14-19.1,14c-6.4,0-10.7-2.5-10.7-8.1c0-5.9,4.2-8.8,14.1-8.8
			c5.9,0,10.7,0.8,15.8,2L375.9,70.6z M585.3,80.7h-33.5l34.7-38.1c2-2.2,2.8-4.2,2.8-7.1v-5l0-5.8h-57.2c-3.6,0-5.7,2-5.7,5.7v11.9
			H563l-34.6,38.1c-2,2-2.9,4-2.9,7v10.9h65.6V86.4C591.1,82.7,588.9,80.7,585.3,80.7z M668,24.7h-16.2v35.2c0,14.9-6.7,22-17.2,22
			c-8.1,0-12.6-5-12.6-15V29.7c0-2.8-2.2-5-5-5h-16.2v41.4c0,22.3,10.4,34,28.7,34c10.2,0,18.3-4.5,24-11.6c0.2,1.9,0.5,4,0.9,5.9
			c0.8,2.8,2.9,4,6.2,4H673V29.7C673,26.9,670.8,24.7,668,24.7z M703.5,1.6H688v91c0,3.2,2.6,5.7,5.7,5.7h15.5v-91
			C709.2,4.2,706.6,1.6,703.5,1.6z M478.7,1.6h-19.9l-37.7,96.8h21.7l8.2-23.1h39.4l8.4,23.1h22.3L485.3,6
			C484.3,2.9,481.9,1.6,478.7,1.6z M456.9,57.1l13.8-37.2l13.8,37.2H456.9z"/>
	</g>
</g>
</svg>
